<mxfile host="app.diagrams.net" modified="2023-11-21T17:55:19.335Z" agent="Mozilla/5.0 (Windows NT 10.0; Win64; x64) AppleWebKit/537.36 (KHTML, like Gecko) Chrome/114.0.0.0 Safari/537.36 Edg/114.0.1823.51" version="22.1.3" etag="RS4h7E1twpx2Y_DpiYQT" type="github">
  <diagram name="PÃ¡gina-1" id="9AhIQGNdbwji21LzpWhO">
    <mxGraphModel>
      <root>
        <mxCell id="0" />
        <mxCell id="1" parent="0" />
      </root>
    </mxGraphModel>
  </diagram>
</mxfile>
